# This file uses centimeters as units for non-parametric coordinates.

mtllib ScrapPileSmall.mtl
g default
v -4.149968 0.000000 4.417047
v 3.535534 0.000000 3.535533
v 4.625914 0.000000 -4.337705
v -3.535534 0.000000 -4.126288
v -0.614434 0.000000 5.881513
v 5.665139 0.000000 -0.000000
v -0.000000 0.000000 -5.590755
v -5.754517 0.000000 0.000000
v -0.000000 2.626860 -0.000000
v -4.960044 0.000000 2.053712
v -2.527851 0.000000 5.500910
v -0.614434 1.620202 3.381513
v -2.500000 1.915103 -0.000000
v -2.748317 1.915103 3.015396
v 1.913418 0.000000 4.619398
v 4.619398 0.000000 1.913417
v 3.165139 1.915103 -0.000000
v 2.133884 2.097083 2.133883
v 5.709778 0.000000 -2.715588
v 3.003797 0.000000 -5.421568
v -0.000000 2.358696 -2.500000
v 2.799022 1.493293 -2.133884
v -1.913417 0.000000 -5.210152
v -4.619398 0.000000 -1.913417
v -2.133883 2.358696 -2.133883
v -4.504517 1.121793 -0.000000
v -5.658443 0.000000 0.975452
v -3.991074 1.121793 2.905163
v -2.316942 2.505404 1.066942
v -4.317837 1.121793 1.011825
v -4.771781 0.000000 3.659364
v -3.392285 0.000000 5.038861
v -2.638084 1.121793 4.258153
v -3.664992 1.121793 3.932071
v -1.589885 0.000000 5.785439
v -0.614434 1.121793 4.631513
v -1.681376 1.620202 3.198454
v -1.626259 1.121793 4.444833
v -0.000000 2.404635 1.250000
v -1.250000 2.404635 -0.000000
v -1.772905 2.645729 2.039984
v 0.361018 0.000000 5.785439
v 2.023651 1.121793 3.376641
v 1.066942 1.915103 2.316942
v 1.011825 1.121793 3.563320
v 2.777852 0.000000 4.157348
v 4.157348 0.000000 2.777851
v 3.376641 1.491754 2.023650
v 3.050558 1.121793 3.050558
v 4.903926 0.000000 0.975451
v 4.415139 0.891198 -0.000000
v 2.316942 2.179686 1.066942
v 3.563320 1.372076 1.011825
v 1.250000 2.404635 -0.000000
v 1.158471 2.586615 1.158471
v 5.569065 0.000000 -0.975452
v 4.041780 1.121793 -2.023651
v 2.982080 1.598836 -1.066942
v 4.228459 0.705769 -1.011825
v 5.247728 0.000000 -3.580022
v 3.868231 0.000000 -4.959518
v 2.688789 1.121793 -3.376641
v 3.715697 1.121793 -3.050558
v 0.975451 0.000000 -4.903926
v -0.000000 1.366298 -3.750000
v 1.066942 1.915103 -2.316942
v 1.011825 1.121793 -3.563320
v -0.000000 2.404635 -1.250000
v 1.823610 2.404635 -1.158471
v -0.975452 0.000000 -5.494681
v -2.023650 0.771184 -3.967395
v -1.066942 2.358696 -2.316942
v -1.011825 1.325952 -3.563320
v -2.777851 0.000000 -4.748102
v -4.157348 0.000000 -2.777851
v -3.376641 0.644330 -2.023650
v -3.050558 1.121793 -3.050558
v -5.658443 0.000000 -0.975452
v -2.316942 2.251583 -1.066942
v -4.317837 0.907819 -1.011825
v -1.158471 2.404635 -1.158471
vt 0.146447 0.146447
vt 0.853553 0.146447
vt 0.853553 0.853553
vt 0.146447 0.853553
vt 0.500000 0.000000
vt 1.000000 0.500000
vt 0.500000 1.000000
vt 0.000000 0.500000
vt 0.500000 0.500000
vt 0.038060 0.308658
vt 0.308658 0.038060
vt 0.500000 0.250000
vt 0.250000 0.500000
vt 0.286612 0.286612
vt 0.691342 0.038060
vt 0.961940 0.308658
vt 0.750000 0.500000
vt 0.713388 0.286612
vt 0.961940 0.691342
vt 0.691342 0.961940
vt 0.500000 0.750000
vt 0.713388 0.713388
vt 0.308658 0.961940
vt 0.038060 0.691342
vt 0.286612 0.713388
vt 0.125000 0.500000
vt 0.009607 0.402455
vt 0.162336 0.297635
vt 0.268306 0.393306
vt 0.143668 0.398817
vt 0.084265 0.222215
vt 0.222215 0.084265
vt 0.297635 0.162336
vt 0.194944 0.194944
vt 0.402455 0.009607
vt 0.500000 0.125000
vt 0.393306 0.268306
vt 0.398817 0.143668
vt 0.500000 0.375000
vt 0.375000 0.500000
vt 0.384153 0.384153
vt 0.597545 0.009607
vt 0.702365 0.162336
vt 0.606694 0.268306
vt 0.601183 0.143668
vt 0.777785 0.084265
vt 0.915735 0.222215
vt 0.837664 0.297635
vt 0.805056 0.194944
vt 0.990393 0.402455
vt 0.875000 0.500000
vt 0.731694 0.393306
vt 0.856332 0.398817
vt 0.625000 0.500000
vt 0.615847 0.384153
vt 0.990393 0.597545
vt 0.837664 0.702365
vt 0.731694 0.606694
vt 0.856332 0.601183
vt 0.915735 0.777785
vt 0.777785 0.915735
vt 0.702365 0.837664
vt 0.805056 0.805056
vt 0.597545 0.990393
vt 0.500000 0.875000
vt 0.606694 0.731694
vt 0.601182 0.856332
vt 0.500000 0.625000
vt 0.615847 0.615847
vt 0.402455 0.990393
vt 0.297635 0.837664
vt 0.393306 0.731694
vt 0.398817 0.856332
vt 0.222215 0.915735
vt 0.084265 0.777785
vt 0.162336 0.702365
vt 0.194944 0.805056
vt 0.009607 0.597545
vt 0.268306 0.606694
vt 0.143668 0.601183
vt 0.384153 0.615847
vn -0.402861 0.914386 -0.040004
vn -0.400159 0.911338 -0.096620
vn -0.548227 0.833578 -0.067789
vn -0.602062 0.795158 0.072425
vn -0.636935 0.770029 -0.037005
vn -0.689333 0.704658 0.168159
vn -0.733329 0.641986 0.223794
vn -0.628758 0.757535 0.175510
vn -0.400697 0.876702 0.266149
vn -0.738282 0.616759 0.273036
vn -0.520634 0.730609 0.441759
vn -0.603285 0.521627 0.603285
vn -0.379202 0.636545 0.671578
vn -0.204938 0.716842 0.666436
vn -0.185902 0.799984 0.570496
vn -0.121347 0.747633 0.652932
vn -0.078804 0.831864 0.549357
vn 0.116169 0.787894 0.604754
vn 0.115951 0.833297 0.540529
vn 0.128664 0.883727 0.449970
vn 0.036709 0.887215 0.459894
vn 0.042577 0.971530 0.233060
vn -0.013951 0.947489 0.319485
vn 0.005169 0.999302 -0.036992
vn -0.107698 0.992833 -0.051814
vn 0.073593 0.889675 0.450625
vn 0.222980 0.817766 0.530602
vn 0.263252 0.785590 0.559952
vn 0.295319 0.746730 0.595970
vn 0.232725 0.766127 0.599073
vn 0.249494 0.885193 0.392665
vn 0.379202 0.636545 0.671578
vn 0.480312 0.679547 0.554541
vn 0.603285 0.521626 0.603285
vn 0.685157 0.565696 0.458855
vn 0.733918 0.633341 0.245446
vn 0.596536 0.748887 0.288641
vn 0.674808 0.692337 0.255544
vn 0.628467 0.757843 0.175220
vn 0.586127 0.807188 0.070028
vn 0.608975 0.791516 0.051494
vn 0.501622 0.864431 -0.033668
vn 0.360689 0.929489 0.077159
vn 0.180379 0.982054 -0.055069
vn 0.104745 0.976947 0.186019
vn 0.462091 0.869199 -0.175971
vn 0.540961 0.839890 -0.044117
vn 0.533362 0.845797 0.012344
vn 0.526759 0.848359 -0.053033
vn 0.467627 0.883304 -0.033147
vn 0.295996 0.909739 -0.291138
vn 0.471829 0.831151 -0.294219
vn 0.330348 0.888677 -0.318000
vn 0.413913 0.810772 -0.413914
vn 0.264228 0.851545 -0.452829
vn 0.045543 0.850074 -0.524691
vn 0.091316 0.878431 -0.469064
vn 0.111227 0.809458 -0.576547
vn 0.151247 0.826661 -0.541992
vn 0.082321 0.800156 -0.594116
vn 0.116356 0.792439 -0.598750
vn 0.100204 0.901588 -0.420831
vn 0.245611 0.880785 -0.404839
vn 0.048473 0.990809 -0.126284
vn 0.298151 0.932332 -0.204603
vn -0.094994 0.905695 -0.413149
vn -0.132416 0.781415 -0.609800
vn -0.138036 0.812181 -0.566840
vn -0.214974 0.809102 -0.546937
vn -0.265716 0.793733 -0.547159
vn -0.398395 0.826181 -0.398381
vn -0.374707 0.770243 -0.516063
vn -0.569654 0.733232 -0.371302
vn -0.607630 0.670662 -0.425440
vn -0.618211 0.755772 -0.215925
vn -0.505228 0.744505 -0.436415
vn -0.606107 0.721174 -0.335474
vn -0.565343 0.763809 -0.311421
vn -0.546379 0.785035 -0.291872
vn -0.457216 0.878155 -0.140702
vn -0.104886 0.994468 -0.005656
s 1
g ScrapPileSmall
usemtl initialShadingGroup
f 29/29/1 13/13/2 26/26/3 30/30/4
f 26/26/3 8/8/5 27/27/6 30/30/4
f 27/27/6 10/10/7 28/28/8 30/30/4
f 28/28/8 14/14/9 29/29/1 30/30/4
f 28/28/8 10/10/7 31/31/10 34/34/11
f 31/31/10 1/1/12 32/32/13 34/34/11
f 32/32/13 11/11/14 33/33/15 34/34/11
f 33/33/15 14/14/9 28/28/8 34/34/11
f 33/33/15 11/11/14 35/35/16 38/38/17
f 35/35/16 5/5/18 36/36/19 38/38/17
f 36/36/19 12/12/20 37/37/21 38/38/17
f 37/37/21 14/14/9 33/33/15 38/38/17
f 37/37/21 12/12/20 39/39/22 41/41/23
f 39/39/22 9/9/24 40/40/25 41/41/23
f 40/40/25 13/13/2 29/29/1 41/41/23
f 29/29/1 14/14/9 37/37/21 41/41/23
f 44/44/26 12/12/20 36/36/19 45/45/27
f 36/36/19 5/5/18 42/42/28 45/45/27
f 42/42/28 15/15/29 43/43/30 45/45/27
f 43/43/30 18/18/31 44/44/26 45/45/27
f 43/43/30 15/15/29 46/46/32 49/49/33
f 46/46/32 2/2/34 47/47/35 49/49/33
f 47/47/35 16/16/36 48/48/37 49/49/33
f 48/48/37 18/18/31 43/43/30 49/49/33
f 48/48/37 16/16/36 50/50/38 53/53/39
f 50/50/38 6/6/40 51/51/41 53/53/39
f 51/51/41 17/17/42 52/52/43 53/53/39
f 52/52/43 18/18/31 48/48/37 53/53/39
f 52/52/43 17/17/42 54/54/44 55/55/45
f 54/54/44 9/9/24 39/39/22 55/55/45
f 39/39/22 12/12/20 44/44/26 55/55/45
f 44/44/26 18/18/31 52/52/43 55/55/45
f 58/58/46 17/17/42 51/51/41 59/59/47
f 51/51/41 6/6/40 56/56/48 59/59/47
f 56/56/48 19/19/49 57/57/50 59/59/47
f 57/57/50 22/22/51 58/58/46 59/59/47
f 57/57/50 19/19/49 60/60/52 63/63/53
f 60/60/52 3/3/54 61/61/55 63/63/53
f 61/61/55 20/20/56 62/62/57 63/63/53
f 62/62/57 22/22/51 57/57/50 63/63/53
f 62/62/57 20/20/56 64/64/58 67/67/59
f 64/64/58 7/7/60 65/65/61 67/67/59
f 65/65/61 21/21/62 66/66/63 67/67/59
f 66/66/63 22/22/51 62/62/57 67/67/59
f 66/66/63 21/21/62 68/68/64 69/69/65
f 68/68/64 9/9/24 54/54/44 69/69/65
f 54/54/44 17/17/42 58/58/46 69/69/65
f 58/58/46 22/22/51 66/66/63 69/69/65
f 72/72/66 21/21/62 65/65/61 73/73/67
f 65/65/61 7/7/60 70/70/68 73/73/67
f 70/70/68 23/23/69 71/71/70 73/73/67
f 71/71/70 25/25/71 72/72/66 73/73/67
f 71/71/70 23/23/69 74/74/72 77/77/73
f 74/74/72 4/4/74 75/75/75 77/77/73
f 75/75/75 24/24/76 76/76/77 77/77/73
f 76/76/77 25/25/71 71/71/70 77/77/73
f 76/76/77 24/24/76 78/78/78 80/80/79
f 78/78/78 8/8/5 26/26/3 80/80/79
f 26/26/3 13/13/2 79/79/80 80/80/79
f 79/79/80 25/25/71 76/76/77 80/80/79
f 79/79/80 13/13/2 40/40/25 81/81/81
f 40/40/25 9/9/24 68/68/64 81/81/81
f 68/68/64 21/21/62 72/72/66 81/81/81
f 72/72/66 25/25/71 79/79/80 81/81/81
